# xmcd
#
# Track frame offsets:
#	150
#	14715
#	29498
#	50062
#	63934
#	87425
#	107673
#	117039
#	130172
#	147927
#	178201
#	193465
#	198814
#
# Disc length: 2908 seconds
#
# Revision: 1
# Processed by: cddbd v1.4PL0 Copyright (c) Steve Scherf et al.
# Submitted via: audiograbber 1.80.04
#
DISCID=c20b5a0d
DTITLE=The Nightporters - Rollercoaster
DYEAR=1999
DGENRE=Rock and Roll
TTITLE0=Just Keep Loving Her
TTITLE1=Stay Out All Night Long
TTITLE2=Slowdown
TTITLE3=That's What You Do To Me
TTITLE4=I Want You
TTITLE5=Until My Baby Left Me (I Didn't Know My Mind)
TTITLE6=Switchback
TTITLE7=Everybody's In The Mood
TTITLE8=Baby Please
TTITLE9=I'm Going To Change My Whole Direction
TTITLE10=Wang Dang Doodle
TTITLE11=Cathedral Blues
TTITLE12=Catfish
EXTD=
EXTT0=
EXTT1=
EXTT2=
EXTT3=
EXTT4=
EXTT5=
EXTT6=
EXTT7=
EXTT8=
EXTT9=
EXTT10=
EXTT11=
EXTT12=
PLAYORDER=
